<?xml version="1.0" encoding="UTF-8"?><svg id="uuid-45b12d32-8b8c-46ca-b52e-c2d453f63f94" xmlns="http://www.w3.org/2000/svg" width="100" height="100" viewBox="0 0 100 100"><path d="M33.86,90.23c.79-.79,1.6-2.06,4.12-2.06h30.31c2.29,0,14.88-12.62,16.48-14.42,1.54-1.73,8.4-12.03,10.3-16.48-1.19-1.61-4.42-2.95-8.24-2.06-3.64,.85-5.78,3.46-8.24,8.24l-8.97,4.66" style="fill:none; stroke:#003a70; stroke-miterlimit:10; stroke-width:2px;"/><path d="M45.64,75.81h18.54c8.24,0,8.24-10.3,0-10.3h-12.36c-1.72,0-4.93-4.12-7.66-4.12h-10.3c-2.78,0-6.24,2.26-8.24,4.12-3.09,3.09-8.38,8.1-8.38,8.1" style="fill:none; stroke:#003a70; stroke-miterlimit:10; stroke-width:2px;"/><polyline points="5.07 77.82 13.26 69.63 35.92 92.29 31.8 96.41" style="fill:none; stroke:#003a70; stroke-miterlimit:10; stroke-width:2px;"/><path d="M58.92,56.74c-8.28-10.18-26.94-16.08-28.81-31.91-1.23-10.46,6.6-16.87,14.33-16.95,7.72-.08,14.41,5.94,14.48,13.43,.08-7.5,6.76-13.51,14.48-13.43,7.72,.08,14.33,6.41,14.33,16.95,0,14.45-20.71,21.21-28.81,31.91Z" style="fill:none; stroke:#003a70; stroke-linecap:round; stroke-linejoin:round; stroke-width:2px;"/></svg>