<svg xmlns="http://www.w3.org/2000/svg" width="22.119" height="18.604" viewBox="0 0 22.119 18.604">
  <defs>
    <style>
      .cls-1 {
        fill: #fff;
      }
    </style>
  </defs>
  <path id="Quotes" class="cls-1" d="M-2.246-36.743v3.735a5.834,5.834,0,0,0-2.661.647,2.966,2.966,0,0,0-1.27,1.782,13.06,13.06,0,0,0-.366,3.528h4.3v8.911H-11.06v-8.472q0-5.249,2.234-7.69T-2.246-36.743Zm13.306,0v3.735a6.084,6.084,0,0,0-2.661.623A3.01,3.01,0,0,0,7.092-30.6a12.188,12.188,0,0,0-.4,3.552h4.37v8.911H2.2v-8.472q0-5.249,2.222-7.69T11.06-36.743Z" transform="translate(11.06 36.743)"/>
</svg>
