<?xml version="1.0" encoding="UTF-8" standalone="no"?>
<svg
   xmlns:dc="http://purl.org/dc/elements/1.1/"
   xmlns:cc="http://creativecommons.org/ns#"
   xmlns:rdf="http://www.w3.org/1999/02/22-rdf-syntax-ns#"
   xmlns:svg="http://www.w3.org/2000/svg"
   xmlns="http://www.w3.org/2000/svg"
   width="338.66666mm"
   height="169.33333mm"
   viewBox="0 0 1200 599.99998"
   id="svg4151"
   version="1.1">
  <defs
     id="defs4153" />
  <metadata
     id="metadata4156">
    <rdf:RDF>
      <cc:Work
         rdf:about="">
        <dc:format>image/svg+xml</dc:format>
        <dc:type
           rdf:resource="http://purl.org/dc/dcmitype/StillImage" />
        <dc:title></dc:title>
      </cc:Work>
    </rdf:RDF>
  </metadata>
  <g
     id="g4156">
    <path
       style="fill:#d40000;stroke:none"
       id="path4"
       d="M 0,0 0,600 1200,600 1200,0 0,0 Z" />
    <rect
       style="fill:#ffffff;stroke:none"
       y="0"
       id="rect6"
       x="300"
       height="600"
       width="600" />
    <path
       d="m 632.03663,79.577085 c 1.76642,12.346453 4.42493,39.718535 4.2724,41.917135 -0.0982,6.36878 0.4426,14.28181 -1.60085,20.36562 2.83762,1.82527 6.90629,-6.07344 7.05731,0.76073 1.2681,6.12779 -0.83496,11.67376 -2.40389,17.32967 1.73402,0.9967 3.35937,-0.33667 4.91428,-1.09757 l 0.90384,-1.00599 c 4.55214,6.3449 -0.34027,13.89609 -2.3374,20.0918 1.98509,0.27872 4.26028,-1.34301 6.18233,-2.31198 4.34948,6.23169 0.0841,14.64781 -1.78879,20.42484 1.62963,-0.23794 3.54606,-1.11787 4.4913,-2.49615 4.31122,7.59733 0.11576,16.91488 -3.45527,23.85975 l 0.0432,0.34433 c 2.07468,0.25554 4.57094,-1.07154 6.6514,-2.27388 2.60207,8.13613 -1.69679,16.09475 -5.64102,22.65125 2.04947,0.43424 4.17258,-1.31536 6.2105,-2.14123 1.53783,8.02887 -1.51154,16.54237 -5.67368,22.91455 2.46657,1.03141 4.88807,-0.81859 7.28823,-1.48791 0.78002,7.63524 -2.8327,15.06131 -6.77692,21.61777 1.89157,0.66876 4.18422,-0.7738 6.37022,-1.10489 0.008,9.05514 -5.07341,16.52667 -9.02961,24.73147 l -0.0641,0.56415 c 2.1637,0.94981 4.3363,-0.64592 6.39749,-0.93642 0.46613,4.92582 -6.09492,17.48121 -6.67346,19.81413 l 5.12165,0.73842 c -0.4546,5.74736 -4.05887,10.14734 -6.62014,15.11671 0.90423,1.4354 2.9234,0.69769 4.27311,0.63905 0.0542,6.49779 -4.13891,11.0834 -7.14801,16.16864 l 3.88795,1.31708 c -1.46266,6.25492 -4.82591,11.47708 -8.34602,16.7993 1.4291,0.2769 2.5742,1.08609 4.23717,0.92869 -2.03603,7.33385 -7.19466,13.48883 -9.89864,20.57784 1.19783,0.0739 1.702,1.90497 2.76733,0.93662 -0.60107,6.24896 -6.83457,11.65487 -8.50944,18.11585 0.9846,0.41447 0.63854,2.51851 2.55675,2.00236 -4.52169,6.94094 -8.38119,14.31828 -13.09113,21.07822 l 2.84986,0.99919 c -2.66041,6.54392 -8.39267,11.79183 -10.26368,18.66883 l 1.39787,2.27915 c -4.16268,6.47356 -3.38734,14.09761 -4.74594,21.35705 0.48202,2.02389 -0.20698,4.77115 2.29744,6.15753 4.09336,-1.47258 4.30654,-5.88641 5.52655,-9.16791 2.59426,-4.9924 3.34733,-11.01099 5.20747,-16.44243 l 2.10351,-1.65994 c 2.22435,-5.40711 3.50808,-11.23877 5.25159,-17.08889 1.14804,0.0871 1.95355,-0.89285 2.98262,-1.48671 0.81578,-4.87451 2.94968,-9.16519 4.95092,-13.50258 4.52609,-0.70067 3.06435,-6.93694 5.07597,-10.2909 0.82589,-1.80368 1.98709,-4.61123 4.40626,-4.65279 1.1467,-5.0674 1.88807,-10.36121 5.36326,-14.59401 0.45472,0.85225 1.08281,1.0249 1.90573,0.94257 1.79806,-2.0216 0.71387,-5.12069 1.89359,-7.30157 1.67194,-2.70292 2.15402,-6.29575 4.95098,-8.2654 0.57518,1.27348 1.07217,0.38309 1.91799,0.11622 1.63019,-5.13127 3.20077,-10.50938 7.47298,-14.66454 0.82417,-0.0826 0.91747,1.24151 1.91879,0.83728 2.20368,-2.13683 1.4134,-5.51832 3.13192,-7.86907 1.16556,-2.4547 2.96879,-4.5665 5.27437,-6.45712 l 1.90315,1.65179 c 2.2012,-3.1354 2.73092,-7.74265 5.16287,-11.03933 1.58851,-1.67219 2.60922,-3.99776 4.61762,-4.99773 0.27169,0.90992 1.24109,1.41774 1.87508,2.21724 2.4973,-4.40522 2.70342,-9.89715 7.44963,-13.21499 0.36088,-0.11377 1.13089,-1.44316 2.11184,-1.02375 0.23667,0.82864 0.52479,1.6309 1.30806,2.29482 0.78552,-1.15844 2.02165,-5.52032 3.80771,-8.80317 2.40058,-4.74157 5.19833,-7.15422 7.15794,-8.68279 l 1.80212,2.41738 c 2.46187,-4.21698 2.67234,-9.3561 5.80379,-13.0504 1.21274,-1.10844 2.02278,-2.81351 3.77701,-3.36653 0.57305,1.26149 1.08043,3.10031 3.07161,3.38343 1.12876,-2.88589 1.87319,-6.11869 3.42499,-8.87227 0.91686,-1.10118 0.6534,-0.74869 1.40173,-1.88401 2.19519,-3.76603 4.77803,-7.2115 8.2241,-10.38512 l 4.2184,3.55322 c 5.38247,-7.66772 10.01583,-16.18719 18.3021,-21.83542 0.52482,1.01482 0.59921,2.79658 2.30125,2.99375 5.54996,-10.61742 16.98644,-18.51111 24.66793,-28.01675 9.7337,-11.39234 20.33963,-22.7307 32.44758,-32.49325 0.90215,-0.28438 1.75415,-0.553 2.52568,-0.98214 -4.69535,17.16653 -20.06711,30.23498 -27.80023,46.46157 -6.07218,7.98631 -6.97856,18.39227 -13.3689,26.22588 1.61969,1.20986 3.43747,0.0916 5.15323,0.0959 -2.87913,7.96648 -6.66045,15.63544 -13.61141,21.87473 1.91018,0.57686 4.87323,0.99385 6.79854,0.0325 1.74193,1.27252 -0.26905,3.52568 -0.82884,4.97984 -1.39926,2.8826 -4.12404,5.09513 -6.08634,7.71246 l 0.75635,0.84193 c -2.94784,3.28221 -6.14847,6.46703 -9.83424,9.43792 1.73898,0.53972 4.5793,1.27625 6.30984,0.18673 -0.38717,6.90264 -6.43331,12.35067 -13.28706,16.49733 1.68065,0.74787 3.44557,1.00111 5.60678,0.95234 -2.2382,5.95543 -7.19495,11.50283 -13.82835,14.50476 0.5777,1.27267 3.28186,0.33166 4.69944,1.32692 -0.69892,3.2058 -4.09868,5.9094 -6.64202,8.69727 -3.22951,2.73851 -6.83005,4.68313 -9.89532,6.82592 1.98828,1.00509 4.33388,1.26506 6.41859,1.78436 -2.31887,4.0833 -7.28681,9.09027 -11.81238,11.50364 -2.92789,2.09819 -5.31327,2.22144 -7.8066,4.54823 0.6662,1.96585 3.81685,0.87142 5.19847,2.15634 -3.99594,6.87639 -12.66907,9.43339 -19.0709,14.15866 0.56761,1.98427 3.62372,1.02087 4.47553,2.83965 -4.06326,5.72113 -11.51794,8.7922 -17.57058,11.96523 0.428,0.4078 1.35882,1.92462 2.52435,1.92406 0.20119,2.201 -3.46238,3.8872 -5.55685,5.19263 -3.8473,2.47784 -8.07262,3.63144 -11.98432,5.95377 l 1.8672,1.94144 c -5.14417,4.34143 -12.48553,6.11178 -17.31863,10.17806 0.33354,0.43628 0.88593,0.44304 1.19275,0.43487 -1.35513,2.23621 -4.72278,3.03214 -7.015,4.47582 -3.61591,2.04434 -7.96121,2.32624 -11.60838,4.02121 0.46554,0.39593 0.56284,1.0041 1.22243,0.87967 -0.96235,2.46656 -3.97355,2.51512 -5.89683,3.85764 -4.15256,1.8429 -8.57069,2.70181 -12.32628,4.78515 1.44028,3.35369 -4.67238,5.00237 -6.22933,7.84613 -4.99809,2.02466 -5.52985,7.44851 -10.79526,10.19628 -0.25076,0.98228 -2.61908,4.07675 -2.55231,5.3334 2.61115,0.08 6.04907,-5.71464 9.09584,-5.57453 6.81611,-7.04437 15.1226,-8.29667 21.95723,-14.71436 6.83554,-2.2396 9.29792,-8.26948 16.71012,-9.25251 6.0098,-7.14438 15.45033,-6.13558 22.01094,-12.18856 6.89305,1.35648 10.4548,-6.19267 16.76957,-6.37055 0.49323,1.56495 1.94074,0.65072 2.81521,0.19665 3.86342,-2.30204 6.97327,-6.90416 12.1701,-6.18944 -0.20397,0.24646 0.10586,0.50933 0.24854,0.73759 l 1.15069,0.0901 c 4.83136,-2.42755 7.19882,-6.97527 13.03387,-7.18281 0.29267,0.45044 -0.072,1.28615 0.55163,1.81219 l 1.32106,0.12878 c 4.89217,-3.71808 9.57874,-8.44655 15.28599,-9.6132 0.63933,0.7953 0.36189,1.97322 1.53005,2.59169 16.03785,-9.85019 33.51072,-15.54809 50.52077,-22.70665 7.70476,-3.1512 15.98013,-4.85538 23.93897,-7.18726 l 1.16581,-0.003 c -6.03263,7.32871 -16.35893,11.12792 -24.64461,16.09285 -11.36898,5.21586 -21.45169,14.90918 -32.03533,21.50934 -0.58833,1.27212 1.78097,0.88072 1.19434,2.15355 -4.69039,3.11048 -9.36001,7.02405 -14.40889,9.33671 3.90866,2.12017 -0.72886,4.12605 -2.37631,5.1767 -4.63757,2.00589 -9.17622,4.52458 -13.9053,6.10391 0.44538,1.21318 2.41811,1.32505 3.33228,2.30187 -3.47628,4.43554 -9.44504,5.9629 -14.92675,7.05844 0.46308,1.11906 1.59746,1.03976 2.21162,1.9214 -2.10449,3.47179 -8.14873,4.20071 -12.39263,5.99395 0.94938,0.32944 1.52484,1.22712 2.38184,1.95633 -4.87749,3.89052 -11.1689,3.88519 -16.98204,5.17249 l 2.67336,2.42103 c -2.39516,2.56404 -6.52915,2.60347 -9.95063,3.40627 -3.13764,0.35911 -6.67321,-0.0719 -9.57507,0.75404 l 1.11773,1.10243 c -5.05197,2.134 -11.67412,2.04825 -18.04008,1.24667 -0.77319,0.69536 -0.19432,1.6046 -0.0659,2.28511 -5.63675,-0.032 -14.1522,-1.5096 -19.19784,-1.55093 -0.1956,0.87255 0.17493,0.3029 0.21617,1.74088 -5.50191,0.19109 -12.12285,-0.88433 -16.75662,-2.49761 -1.41999,2.07953 -5.09762,1.78407 -8.09365,2.00623 -2.48819,1.68884 -6.06995,1.00898 -8.2011,2.94456 4.02018,-0.45137 9.23456,-0.82379 13.78551,-1.25906 9.18524,-0.0872 20.55378,0.0356 29.91556,1.43603 -0.95589,1.38677 2.95174,1.24536 4.62128,1.61724 3.78962,0.7029 11.82731,0.88893 15.27203,2.33306 -0.32327,0.1943 -1.5558,0.75865 -0.6791,1.66889 17.96144,4.38218 38.13594,14.79665 53.88603,16.91579 -12.94425,5.34555 -30.77472,-0.43152 -44.22385,-2.12479 -1.14226,0.17664 -1.30968,0.13832 -1.2461,1.02784 -8.98859,-0.43018 -23.42631,-5.2654 -24.47505,-5.0613 -0.62777,0.19791 0.43215,1.40711 -0.43959,0.77238 -5.47879,-2.08064 -11.57862,-3.23175 -17.31591,-5.21821 l 0.0538,1.60223 c -5.40495,-1.55994 -10.58954,-4.26461 -15.69076,-6.18591 0,0 -0.3938,0.39359 -0.43285,1.40143 -1.68766,-1.01129 -12.14139,-5.58433 -18.57459,-3.46782 -1.16573,0.006 -1.85264,0.0414 -2.63301,-0.61208 0,0 2.21263,48.13258 -0.46498,54.66931 -0.17941,0.42214 -6.58247,-0.36648 -6.58247,-0.36648 2.65744,-3.36777 2.02851,-54.6562 1.90321,-54.61667 -1.35328,0.4266 -0.12053,-0.41111 -2.09408,0.21103 -2.44804,-0.40474 -5.28565,-2.23005 -7.94339,-0.84825 -4.3892,0.655 -7.8311,4.45476 -12.3249,4.78853 l 0.0376,-0.64556 c -3.07596,-0.21059 -7.71336,2.78828 -10.43438,3.19567 0.21206,-1.69871 -4.45355,0.49944 -7.00344,0.94397 -1.40853,0.53262 -5.4892,1.18013 -6.83431,1.24998 -1.00817,0.13436 0.69345,-0.40204 -0.32285,-0.53707 -3.03651,-0.21794 -6.88457,0.27273 -8.52386,0.96661 -2.17762,0.86483 -10.61156,2.52797 -10.48464,2.21851 0.0894,-0.39634 0.78849,-1.15812 0.78849,-1.15812 -2.82099,-0.55285 -7.34116,1.49702 -9.94362,0.95876 -0.29038,-0.0856 0.15882,-0.59526 -0.12987,-0.68013 -12.96289,0.64553 -34.68058,4.50631 -37.46964,5.29698 -2.9527,0.56648 -16.3375,7.41463 -5.96499,-0.92797 13.18498,-10.58275 33.01173,-12.30412 49.98802,-17.8328 0.29452,-0.27755 -1.54032,-0.0596 -1.25067,-0.33186 3.56916,-3.38954 22.37748,-0.34958 18.58377,-2.32889 1.41189,-0.62727 24.10366,-0.62811 37.96139,0.68338 -8.5672,-1.73955 -20.06048,-1.92415 -22.42655,-2.165 -3.43441,-0.46069 -6.09029,-0.88847 -9.03655,-1.40182 0.33291,0.0822 2.30152,-0.90768 0.2985,-0.99355 -6.5967,-0.64027 -10.71808,-1.87109 -11.77092,-2.36147 0.84686,-0.90074 1.20323,-1.3711 1.13091,-1.44316 -4.92852,-0.88785 -11.87656,-0.15218 -16.34827,-2.53777 0.31672,-0.45658 1.05602,-0.51507 0.95432,-1.11679 -5.78057,-0.61922 -14.47114,-0.0555 -19.11722,-3.75217 l 1.27519,-0.85488 -0.71103,-0.86249 c -5.43141,-1.00765 -13.025,-0.59994 -16.64364,-4.62054 l 1.75065,-1.28051 -0.56308,-0.63844 c -5.50055,-1.51713 -12.5475,-1.29441 -15.3767,-5.56388 0.6827,0.0579 1.11212,-0.62255 1.71377,-0.9931 l 0.0696,-0.19783 c -5.63403,-1.12084 -11.89812,-1.67624 -14.72891,-6.22345 1.48486,-0.82737 3.34059,-1.23777 4.4046,-2.56878 -7.67025,-3.09757 -15.28081,-5.9483 -20.96667,-11.98642 1.02594,-1.32027 3.39053,-0.98024 4.32782,-2.27511 -6.21725,-2.29059 -11.84147,-5.23617 -16.72048,-9.5299 l 3.11583,-2.15744 c -7.12188,-3.00478 -13.89541,-7.11874 -18.56192,-13.12399 l 2.54244,-1.07851 c -12.06379,-8.68284 -22.51939,-19.84611 -34.10191,-29.35115 -8.04266,-7.42043 -18.41055,-15.70177 -20.77673,-25.83511 19.04623,11.4533 35.79348,25.90836 56.55855,34.66925 0.82549,0.27995 1.65119,2.27519 2.77028,0.67004 3.93509,1.56787 7.69913,3.54389 10.65111,6.77523 0.85334,-0.26901 1.12408,-0.98054 1.00078,-1.75762 l -0.26466,-0.27331 c 6.14643,1.50329 11.20081,5.1598 15.95014,9.14024 1.58846,-0.95365 0.81659,-4.15373 3.60407,-2.31265 6.17913,3.56763 11.43732,8.88035 17.42821,12.84888 l 1.49652,-2.64761 c 5.69261,2.73427 10.24964,7.003 15.06867,10.80963 -0.50048,-2.19518 2.0081,-2.98597 3.78688,-1.73395 l 9.7588,8.14447 c 0.63629,-2.02224 2.40777,-0.30869 3.74029,-0.27206 4.79395,2.6507 7.32519,9.99954 13.91421,9.1495 5.06011,2.30114 7.0972,9.07206 13.0306,10.06058 5.85749,9.02007 18.71387,9.281 23.40196,18.55587 4.18166,3.12205 8.10587,6.13546 12.16274,9.19562 4.81438,1.46779 11.42291,10.69392 16.8153,10.51205 -5.45352,-5.33971 -8.91633,-12.74908 -15.63482,-17.2093 l 0.94436,-0.65826 -15.98015,-12.2933 c -0.8863,-1.16274 0.12,-1.30163 0.71393,-2.21117 l -16.02045,-11.77461 1.57379,-1.22857 c -5.9081,-4.82954 -13.14768,-8.63213 -18.3473,-14.07717 0.3621,-0.83648 3.4585,-0.0972 2.40986,-2.39159 -4.96314,-4.05215 -11.28311,-7.30972 -15.03543,-12.3381 0.98735,-0.31128 2.515,-0.426 2.90283,-1.54255 -5.51094,-4.24634 -12.43154,-7.75731 -15.86685,-13.59409 1.77089,0.71944 2.10541,-1.65546 3.7591,-1.18501 -4.78176,-3.47682 -12.51329,-7.09901 -13.78849,-13.36375 1.30315,-0.41079 2.64105,-0.73765 4.03476,-1.27189 -5.74411,-3.3379 -11.13413,-9.14038 -13.30306,-14.65529 1.51131,-1.37964 4.12573,0.41984 5.63991,-1.0556 -5.19307,-4.33386 -13.10138,-8.5202 -14.43789,-15.30955 1.37319,-0.34431 3.21824,-0.19858 4.42607,-0.94239 -5.61145,-3.29118 -11.68737,-8.90272 -12.9108,-14.90545 1.87953,-0.59252 4.26878,0.28615 6.05891,-0.55644 -5.75471,-3.97972 -11.27416,-9.85524 -12.83399,-15.81517 l 4.35002,-0.37318 c -2.49792,-2.47634 -9.88956,-8.83696 -9.55646,-12.92679 1.54452,-0.58053 3.48506,0.3435 4.9065,-0.63717 -7.22437,-6.05914 -9.50526,-12.56343 -9.5527,-15.96405 2.31375,0.0802 4.91082,0.98197 6.86686,-0.17858 -5.86482,-6.19675 -12.61602,-12.72129 -13.01985,-20.81669 1.87954,-0.5925 5.91218,2.03254 7.35503,-0.23125 -6.39411,-5.76426 -8.21082,-13.098 -9.87037,-20.29151 1.14888,0.4487 1.66489,-0.2554 2.51696,-0.52403 -5.88747,-8.0998 -8.57361,-17.4112 -13.71565,-25.78395 -9.23938,-13.15325 -15.70089,-27.0557 -28.31093,-39.1464 9.4887,-0.10692 17.18051,6.26024 23.35018,13.6386 10.61824,11.45356 20.76361,21.28515 30.09505,33.01785 l 1.16414,-0.003 c 3.47943,4.60844 8.03642,8.87718 9.29661,14.14723 2.13923,0.13807 1.96832,-1.98672 2.71714,-3.12094 1.66161,-0.16074 3.15684,2.35717 4.12279,3.596 2.66645,4.23219 4.16942,8.72999 5.82539,13.09097 2.50596,-0.0714 1.81164,-4.55596 4.22972,-3.23093 5.27809,5.395 7.83055,11.69984 9.04066,18.1495 1.59362,-1.04379 2.52399,-2.97151 2.84375,-4.86864 1.82105,0.60113 3.68148,1.91345 4.58861,3.62626 3.08194,5.36625 6.15962,10.70854 6.72089,16.73022 2.5206,0.20344 2.24483,-2.51666 3.47194,-3.62453 6.12306,5.86233 7.36369,13.61803 9.29128,20.98006 2.0845,-0.4737 2.35974,-2.37578 3.49018,-3.82005 4.6243,5.424 5.80962,11.83091 7.50211,18.12851 1.98913,-0.0881 2.6109,-3.71997 4.53913,-2.51757 3.78397,4.96786 4.1037,11.01508 5.99803,16.70511 1.26575,0.23476 1.90123,-1.05348 2.91307,-1.55209 4.13918,5.21006 5.12694,11.54008 4.98518,18.03643 0.49991,0.84178 1.32682,0.3926 1.94635,0.56162 l 2.96079,-2.01873 c 3.0809,5.73343 2.62338,12.3293 4.31344,18.50118 1.16264,0.36214 1.53925,-0.93557 2.44613,-1.31127 3.26215,4.94257 3.89185,10.62645 4.46594,16.30256 0.58826,1.16814 2.18738,1.4863 3.13423,0.45411 3.55758,4.31812 2.25451,9.96613 4.08455,14.52524 2.33145,-0.014 2.01229,2.52821 2.55167,3.71177 0.47214,5.55642 0.56157,11.04378 2.03669,16.18282 l 1.95576,-0.16869 c 1.82063,5.49819 -0.22895,12.65919 1.517,18.62372 5.56979,3.77234 0.86529,10.68236 4.05901,15.79834 -0.45676,1.95297 0.35823,4.04898 2.46061,4.47418 -0.69099,4.93637 1.16137,9.41254 1.82583,14.09874 2.07596,0.97747 1.63081,4.91287 2.63689,7.59388 2.46038,4.10737 3.02823,8.91259 8.31322,10.91513 l 0.89969,-0.64288 c -2.99482,-11.27628 -2.88552,-23.50564 -9.12416,-34.06273 l 0.81316,0.0208 c -0.79389,-7.08691 -3.90043,-14.45679 -5.91956,-21.66346 -0.85433,-1.81797 1.44507,-1.53966 2.47543,-1.95934 -2.59294,-7.86073 -6.02996,-15.30355 -8.28302,-23.32197 0.49469,0.20963 1.02128,0.13347 1.09778,0.56475 l 2.14689,-1.31561 c -1.9511,-7.53172 -5.66067,-14.5344 -7.18348,-22.15054 1.10494,0.83194 2.47044,0.21937 3.295,-0.49222 -1.4329,-6.88548 -8.02066,-12.39892 -8.15043,-19.69517 l 4.31887,0.2704 c 0.23369,-3.33742 -3.90738,-6.73793 -4.75784,-10.2649 -0.96688,-2.57948 -1.49574,-5.32233 -1.42262,-8.22964 0.83902,0.18586 2.71187,0.0497 4.04586,-0.0129 0.47189,-2.0463 -2.18958,-3.82592 -2.7849,-6.00386 -1.56144,-3.03719 -2.49257,-6.27312 -2.88065,-9.7814 1.80792,-0.389 4.17835,1.40265 6.23684,0.38682 -3.21286,-5.67918 -8.1476,-11.47335 -5.75552,-18.42607 1.2733,0.14002 2.82506,1.82923 3.92307,0.30656 -2.38493,-5.76306 -6.6957,-11.04555 -5.52393,-17.86657 1.78818,0.52169 3.90619,1.12157 5.62448,0.85819 -1.35277,-2.29335 -6.0737,-18.5788 -4.0716,-21.61348 1.85745,1.312 3.9359,2.28869 6.2603,3.01074 0.77709,-3.49611 -7.07536,-20.0341 -3.88367,-24.5823 1.54918,1.40915 3.33226,2.30185 5.4153,2.54337 0.0739,-2.02208 -2.44093,-4.30331 -3.11166,-6.53335 -0.91735,-5.40346 -3.17987,-11.4834 -1.14323,-16.59098 2.04953,1.52973 4.69972,2.14908 6.94646,3.06006 -0.62145,-2.96669 -4.20782,-13.34787 -4.05297,-15.16773 0.0711,-3.00791 0.28269,-6.06005 2.15373,-8.28175 1.54668,1.40995 3.49736,2.42694 5.42133,3.17398 -0.49042,-5.36092 -4.67727,-11.30233 -1.90978,-17.10834 0.80585,0.47206 3.36223,1.38159 4.99582,2.04311 -1.15774,-5.25179 -4.42008,-12.14245 -0.34356,-17.60214 1.38464,1.01831 3.25929,2.50199 5.45891,3.16214 -1.60108,-6.19989 -4.98777,-14.74651 -0.1654,-21.07382 1.512,1.69921 3.26828,2.866 5.4126,3.63214 -0.89855,-4.24553 -2.14309,-9.45726 -0.66432,-14.33838 0.41184,-1.57195 1.51941,-2.83195 2.28643,-4.16167 1.70966,1.81402 3.22472,3.41105 5.32655,3.93761 -0.44658,-6.82953 -0.38161,-16.32507 2.02411,-22.90258 1.67324,0.3808 2.76461,2.0254 4.36576,2.60858 2.19802,-16.25276 9.12759,-31.340502 9.84645,-48.771516 -0.32132,-10.942398 0.86572,-33.163649 4.11815,-33.176917 3.26445,0.04999 4.79615,20.62607 6.84148,31.113561 z"
       id="path10"
       style="overflow:visible;fill:#d40000;fill-opacity:1;stroke:none" />
  </g>
</svg>
