<?xml version="1.0" encoding="UTF-8"?><svg id="uuid-70f75e42-189b-41bd-a2eb-a0dd7cb7be3c" xmlns="http://www.w3.org/2000/svg" width="100" height="100" viewBox="0 0 100 100"><polyline points="49.88 57.15 5.64 95 49.88 95" style="fill:none; stroke:#003a70; stroke-linecap:round; stroke-linejoin:round; stroke-width:2px;"/><polyline points="15.11 31.85 5.64 39.16 5.64 95" style="fill:none; stroke:#003a70; stroke-linecap:round; stroke-linejoin:round; stroke-width:2px;"/><line x1="49.88" y1="5" x2="35.66" y2="15.99" style="fill:none; stroke:#003a70; stroke-linecap:round; stroke-linejoin:round; stroke-width:2px;"/><line x1="40.74" y1="64.95" x2="5.64" y2="39.16" style="fill:none; stroke:#003a70; stroke-linecap:round; stroke-linejoin:round; stroke-width:2px;"/><polyline points="50.12 57.15 94.36 95 50.12 95" style="fill:none; stroke:#003a70; stroke-linecap:round; stroke-linejoin:round; stroke-width:2px;"/><polyline points="84.89 31.85 94.36 39.16 94.36 95" style="fill:none; stroke:#003a70; stroke-linecap:round; stroke-linejoin:round; stroke-width:2px;"/><line x1="50.12" y1="5" x2="64.34" y2="15.99" style="fill:none; stroke:#003a70; stroke-linecap:round; stroke-linejoin:round; stroke-width:2px;"/><line x1="59.26" y1="64.95" x2="94.36" y2="39.16" style="fill:none; stroke:#003a70; stroke-linecap:round; stroke-linejoin:round; stroke-width:2px;"/><path d="M84.62,46.32V23.89c0-4.14-3.36-7.5-7.5-7.5H22.88c-4.14,0-7.5,3.36-7.5,7.5v22.43" style="fill:none; stroke:#003a70; stroke-linecap:round; stroke-linejoin:round; stroke-width:2px;"/><path d="M54.67,50.1c-3.38,1.2-11.48,1.93-15.32-3.83-3.15-4.73-3.53-13.14,1.65-18.62,4.56-4.83,13.12-5.94,17.49-2.1,4.88,4.28,5.11,10.81,2.85,15.54-1.94,4.07-6.76,3.45-7.51,.45s1.88-10.96,1.88-10.96c0,0-11.01-1.57-12.09,7.88-.94,8.29,7.66,5.26,10.14,.75" style="fill:none; stroke:#003a70; stroke-linecap:round; stroke-linejoin:round; stroke-width:2px;"/></svg>