<svg xmlns="http://www.w3.org/2000/svg" viewBox="0 0 436.93 91.37"><defs><style>.cls-1{fill:#231f20;}.cls-2{fill:#020202;}</style></defs><g id="Layer_2" data-name="Layer 2"><g id="Layer_1-2" data-name="Layer 1"><path class="cls-1" d="M108.64,44.44v4.93H96.52V79.84H90.78V49.37H78.66V44.44Z"/><path class="cls-1" d="M116.79,48.52a4.06,4.06,0,0,1-2.87-.94,3.49,3.49,0,0,1-1-2.66,3.41,3.41,0,0,1,1-2.63,4.15,4.15,0,0,1,2.87-.91,4.05,4.05,0,0,1,2.82.91,3.41,3.41,0,0,1,1,2.63,3.49,3.49,0,0,1-1,2.66A4,4,0,0,1,116.79,48.52Zm2.85,4.5V79.84H113.9V53Z"/><path class="cls-1" d="M144.9,53v4.51H125.59V53ZM140,40.58a11.89,11.89,0,0,1,3,.35,5.26,5.26,0,0,1,2.07.93L144,46a4.8,4.8,0,0,0-1.35-.56,7.33,7.33,0,0,0-1.71-.19,5.34,5.34,0,0,0-3.46,1,4,4,0,0,0-1.26,3.33V53.5l.16,1.45V79.84h-5.74V49.16a10.16,10.16,0,0,1,.62-3.65,6.83,6.83,0,0,1,1.85-2.71,8.27,8.27,0,0,1,3-1.66A12.82,12.82,0,0,1,140,40.58ZM166.14,53v4.51H146.83V53ZM161.2,40.58a11.89,11.89,0,0,1,3,.35,5.26,5.26,0,0,1,2.07.93L165.22,46a4.62,4.62,0,0,0-1.34-.56,7.33,7.33,0,0,0-1.71-.19,5.34,5.34,0,0,0-3.46,1,4,4,0,0,0-1.26,3.33V53.5l.16,1.45V79.84h-5.74V49.16a9.94,9.94,0,0,1,.62-3.65,6.83,6.83,0,0,1,1.85-2.71,8.27,8.27,0,0,1,3-1.66A12.78,12.78,0,0,1,161.2,40.58Z"/><path class="cls-1" d="M185.39,62.62a5.61,5.61,0,0,0-1.48-4.16,5.46,5.46,0,0,0-4-1.47,7.28,7.28,0,0,0-4.13,1.13,6.51,6.51,0,0,0-2.53,3.64l-4.82-2a9.61,9.61,0,0,1,4-5.25,13.67,13.67,0,0,1,7.7-2,14.39,14.39,0,0,1,5.68,1.05,8.59,8.59,0,0,1,3.89,3.14A9.31,9.31,0,0,1,191.07,62V74a1.76,1.76,0,0,0,2,2,6.63,6.63,0,0,0,1.88-.27l-.33,4a7.25,7.25,0,0,1-3.11.59,7.43,7.43,0,0,1-3.08-.62,4.79,4.79,0,0,1-2.15-1.88,5.94,5.94,0,0,1-.77-3.14v-.37l1.18-.05a6.6,6.6,0,0,1-2,3.45,9.53,9.53,0,0,1-3.48,2,12.48,12.48,0,0,1-4,.67,12,12,0,0,1-4.53-.8,6.92,6.92,0,0,1-3.16-2.44,6.85,6.85,0,0,1-1.16-4,6.64,6.64,0,0,1,2-4.93,10.54,10.54,0,0,1,5.55-2.63l10.41-2-.06,4-7.56,1.56a8.57,8.57,0,0,0-3.38,1.23,2.71,2.71,0,0,0-1.12,2.36A2.85,2.85,0,0,0,175.28,75a4.94,4.94,0,0,0,3.08.88,10.64,10.64,0,0,0,2.6-.32,6.6,6.6,0,0,0,2.28-1,4.9,4.9,0,0,0,1.59-1.87,6.33,6.33,0,0,0,.56-2.77Z"/><path class="cls-1" d="M200.46,79.84V53h5.1l.37,7-.75-.75a10.08,10.08,0,0,1,2.17-3.83,8.51,8.51,0,0,1,3.38-2.23,12.44,12.44,0,0,1,4.16-.7,11.69,11.69,0,0,1,5.12,1.1,8.54,8.54,0,0,1,3.62,3.3A10.62,10.62,0,0,1,225,62.46V79.84h-5.74V64.23q0-4-1.63-5.5a5.78,5.78,0,0,0-4.11-1.53,7.64,7.64,0,0,0-3.43.83,6.76,6.76,0,0,0-2.76,2.66,9.43,9.43,0,0,0-1.1,4.88V79.84Z"/><path class="cls-1" d="M256.34,53,244.6,83a20.66,20.66,0,0,1-2.55,4.94,8.14,8.14,0,0,1-3.14,2.62,9.82,9.82,0,0,1-4.13.81,11.92,11.92,0,0,1-3.56-.51,10.46,10.46,0,0,1-2.87-1.37L229.74,85a7.51,7.51,0,0,0,2.18,1.29,7.15,7.15,0,0,0,2.49.43A4.52,4.52,0,0,0,237,86a6.56,6.56,0,0,0,2.07-3.09L240.26,80l-2.85-6.65L229.05,53h6.43l6,16.84,1.55,5,1.77-5.52L250.39,53Z"/><path class="cls-1" d="M290.35,49.37H270.51v10.3h15.55v4.94H270.51V79.84h-5.74V44.44h25.58Z"/><path class="cls-1" d="M297.64,79.84V53h4.88l.54,4.83a8.34,8.34,0,0,1,3.19-4,9.47,9.47,0,0,1,5.23-1.37,9.73,9.73,0,0,1,1.61.14,4.73,4.73,0,0,1,1.34.4l-.8,5a9,9,0,0,0-1.32-.35,11.21,11.21,0,0,0-2-.13,6.75,6.75,0,0,0-3.27.88,7,7,0,0,0-2.65,2.66,8.71,8.71,0,0,0-1.05,4.5V79.84Z"/><path class="cls-1" d="M334.76,62.62a5.61,5.61,0,0,0-1.48-4.16,5.47,5.47,0,0,0-4-1.47,7.3,7.3,0,0,0-4.13,1.13,6.55,6.55,0,0,0-2.52,3.64l-4.82-2a9.56,9.56,0,0,1,4-5.25,13.67,13.67,0,0,1,7.7-2,14.39,14.39,0,0,1,5.68,1.05A8.65,8.65,0,0,1,339,56.67,9.31,9.31,0,0,1,340.44,62V74a1.76,1.76,0,0,0,2,2,6.51,6.51,0,0,0,1.87-.27l-.32,4a7.25,7.25,0,0,1-3.11.59,7.43,7.43,0,0,1-3.08-.62,4.79,4.79,0,0,1-2.15-1.88,5.85,5.85,0,0,1-.78-3.14v-.37l1.18-.05a6.52,6.52,0,0,1-2,3.45,9.49,9.49,0,0,1-3.49,2,12.37,12.37,0,0,1-4,.67,12,12,0,0,1-4.53-.8,6.54,6.54,0,0,1-4.32-6.49,6.6,6.6,0,0,1,2-4.93,10.47,10.47,0,0,1,5.55-2.63l10.41-2-.06,4L328,69.06a8.57,8.57,0,0,0-3.38,1.23,2.72,2.72,0,0,0-1.13,2.36A2.86,2.86,0,0,0,324.65,75a4.92,4.92,0,0,0,3.08.88,10.64,10.64,0,0,0,2.6-.32,6.6,6.6,0,0,0,2.28-1,4.79,4.79,0,0,0,1.58-1.87,6.19,6.19,0,0,0,.57-2.77Z"/><path class="cls-1" d="M349.83,79.84V53h5.09l.38,7-.75-.75a10.08,10.08,0,0,1,2.17-3.83,8.44,8.44,0,0,1,3.38-2.23,12.4,12.4,0,0,1,4.16-.7,11.69,11.69,0,0,1,5.12,1.1,8.6,8.6,0,0,1,3.62,3.3,10.62,10.62,0,0,1,1.34,5.58V79.84H368.6V64.23q0-4-1.64-5.5a5.76,5.76,0,0,0-4.1-1.53,7.64,7.64,0,0,0-3.43.83,6.76,6.76,0,0,0-2.76,2.66,9.33,9.33,0,0,0-1.1,4.88V79.84Z"/><path class="cls-1" d="M394.61,52.48a14.53,14.53,0,0,1,5.5.94,10.39,10.39,0,0,1,3.83,2.66A11.66,11.66,0,0,1,406.3,60l-5.41,2.15a7.51,7.51,0,0,0-2.23-3.78,5.9,5.9,0,0,0-4-1.32,7.53,7.53,0,0,0-4.13,1.1,6.9,6.9,0,0,0-2.6,3.19,13.25,13.25,0,0,0-.88,5.15,12.74,12.74,0,0,0,.91,5.1,6.78,6.78,0,0,0,2.63,3.16,7.47,7.47,0,0,0,4.07,1.07,7.57,7.57,0,0,0,3.17-.61,5.82,5.82,0,0,0,2.22-1.77,6.58,6.58,0,0,0,1.21-2.82l5.2,1.77a11.48,11.48,0,0,1-2.33,4.21,10.62,10.62,0,0,1-3.94,2.79,13.93,13.93,0,0,1-5.42,1,14.42,14.42,0,0,1-7-1.66,11.63,11.63,0,0,1-4.75-4.8,15.53,15.53,0,0,1-1.69-7.48A15.5,15.5,0,0,1,383,59a11.68,11.68,0,0,1,4.72-4.8A14.08,14.08,0,0,1,394.61,52.48Z"/><path class="cls-1" d="M425,80.37a14.55,14.55,0,0,1-7.08-1.66,11.63,11.63,0,0,1-4.75-4.8,15.53,15.53,0,0,1-1.69-7.48A15.5,15.5,0,0,1,413.14,59a11.73,11.73,0,0,1,4.69-4.8,13.85,13.85,0,0,1,6.81-1.67,13,13,0,0,1,6.66,1.61,10.86,10.86,0,0,1,4.18,4.4,13.6,13.6,0,0,1,1.45,6.33c0,.64,0,1.25-.06,1.82a13.77,13.77,0,0,1-.16,1.51H415.15v-4.4h19l-2.84.86A8,8,0,0,0,429.53,59a6.51,6.51,0,0,0-5-2,7.43,7.43,0,0,0-4,1.08,6.76,6.76,0,0,0-2.62,3.19,13,13,0,0,0-.91,5.17,12.22,12.22,0,0,0,1,5.1,7,7,0,0,0,2.74,3.16,7.86,7.86,0,0,0,4.18,1.07,8.2,8.2,0,0,0,4.34-1A7.18,7.18,0,0,0,431.83,72l4.56,2.15a10.73,10.73,0,0,1-2.6,3.35,11.26,11.26,0,0,1-3.89,2.17A15.54,15.54,0,0,1,425,80.37Z"/><polygon class="cls-2" points="43.01 28.62 49.73 40.92 62.03 47.65 49.73 54.38 43.01 66.67 36.28 54.38 23.98 47.65 36.28 40.92 43.01 28.62"/><polygon class="cls-2" points="20.97 63.33 25.91 72.37 34.95 77.31 25.91 82.25 20.97 91.29 16.03 82.25 6.99 77.31 16.03 72.37 20.97 63.33"/><polygon class="cls-2" points="73.07 10 78.01 19.04 87.05 23.98 78.01 28.92 73.07 37.96 68.13 28.92 59.09 23.98 68.13 19.04 73.07 10"/><polygon class="cls-2" points="27.96 0 30.43 4.52 34.95 6.99 30.43 9.46 27.96 13.98 25.49 9.46 20.97 6.99 25.49 4.52 27.96 0"/><polygon class="cls-2" points="62.03 70.86 64.5 75.38 69.02 77.85 64.5 80.32 62.03 84.84 59.56 80.32 55.04 77.85 59.56 75.38 62.03 70.86"/><polygon class="cls-2" points="102.78 10 105.26 14.52 109.77 16.99 105.26 19.46 102.78 23.98 100.31 19.46 95.79 16.99 100.31 14.52 102.78 10"/><polygon class="cls-2" points="6.99 31.22 9.46 35.74 13.98 38.21 9.46 40.68 6.99 45.2 4.52 40.68 0 38.21 4.52 35.74 6.99 31.22"/></g></g></svg>