<svg xmlns="http://www.w3.org/2000/svg" viewBox="0 0 111.44 108.69"><defs><style>.cls-1{fill:#020202;}</style></defs><g id="Layer_2" data-name="Layer 2"><g id="Layer_1-2" data-name="Layer 1"><polygon class="cls-1" points="69.9 25.61 84.58 52.47 111.44 67.15 84.58 81.83 69.9 108.69 55.22 81.83 28.36 67.15 55.22 52.47 69.9 25.61"/><polygon class="cls-1" points="13.98 67.28 18.92 76.32 27.96 81.26 18.92 86.2 13.98 95.24 9.04 86.2 0 81.26 9.04 76.32 13.98 67.28"/><polygon class="cls-1" points="97.46 0 102.4 9.04 111.44 13.98 102.4 18.92 97.46 27.96 92.51 18.92 83.48 13.98 92.51 9.04 97.46 0"/><polygon class="cls-1" points="42.34 6.99 44.82 11.51 49.33 13.98 44.82 16.45 42.34 20.97 39.87 16.45 35.35 13.98 39.87 11.51 42.34 6.99"/></g></g></svg>